<svg width="153" height="153" viewBox="0 0 153 153" fill="none" xmlns="http://www.w3.org/2000/svg">
<g clip-path="url(#clip0_7_108)">
<path d="M91.2258 49.7129C91.0258 59.6581 89.1269 69.4952 85.6116 78.7962C85.6099 78.8042 85.6099 78.8125 85.6116 78.8205C85.0284 80.1509 84.4775 81.4988 83.959 82.8644C83.1732 84.9371 82.4643 87.0546 81.8365 89.2004C81.1289 91.62 80.5241 94.0802 80.0218 96.581C79.5316 95.443 79.0699 94.2888 78.6284 93.1224C75.2856 84.2283 73.4205 74.844 73.1073 65.3438C80.2243 61.5415 86.4123 56.2031 91.2258 49.7129Z" fill="white"/>
<path d="M99.2015 1.8492C99.2015 4.12242 99.1151 6.37398 98.9423 8.60385C98.1433 19.2289 95.3969 29.6147 90.841 39.2396C86.4333 48.5376 80.4214 56.9802 73.083 64.1773C73.083 63.5636 73.083 62.9581 73.083 62.3281C73.0509 48.4226 76.3488 34.7128 82.6992 22.3529C83.6282 20.5485 84.6179 18.7873 85.6684 17.0695C89.4466 10.8384 93.9846 5.10429 99.1772 0C99.1934 0.617754 99.2015 1.21925 99.2015 1.8492Z" fill="white"/>
<path d="M70.677 123.087C70.2719 122.218 69.9195 121.332 69.5752 120.438Z" fill="white"/>
<path d="M70.677 123.087C70.2719 122.218 69.9195 121.332 69.5752 120.438C70.0045 121.294 70.3727 122.179 70.677 123.087Z" fill="white"/>
<path d="M87.9367 144.648C89.7112 146.092 91.634 147.343 93.6724 148.379C91.6833 147.259 89.7675 146.013 87.9367 144.648Z" fill="white"/>
<path d="M94.5352 135.983C94.4218 135.891 94.3084 135.793 94.1949 135.69Z" fill="white"/>
<path d="M108.413 86.5181C101.367 86.5179 94.5102 88.8088 88.871 93.0476C83.2319 97.2863 79.1137 103.245 77.1337 110.029C77.0122 110.46 76.8947 110.895 76.7853 111.334C72.8067 105.644 67.1241 101.373 60.5625 99.1434C54.0009 96.9134 46.9017 96.8396 40.2954 98.9326C33.6891 101.026 27.9195 105.177 23.8241 110.783C19.7288 116.389 17.5207 123.159 17.5205 130.11C17.5311 137.611 15.9919 145.033 13 151.907H23.8638C24.0906 151.39 24.3053 150.87 24.5159 150.346C27.0824 143.91 28.3982 137.042 28.3924 130.11C28.3915 125.194 30.0474 120.421 33.0912 116.568C36.1351 112.714 40.388 110.007 45.1591 108.885C49.9302 107.763 54.9392 108.293 59.3725 110.388C63.8057 112.483 67.4027 116.02 69.5792 120.425C70.0086 121.281 70.3768 122.167 70.681 123.075C70.6832 123.082 70.6832 123.089 70.681 123.096C74.5017 131.636 80.4432 139.05 87.9367 144.628C87.9444 144.637 87.9541 144.644 87.9651 144.648C89.7959 146.013 91.7117 147.259 93.7008 148.379L93.7372 148.399C98.1301 150.625 102.969 151.824 107.889 151.906C112.81 151.988 117.685 150.95 122.149 148.871C126.613 146.792 130.55 143.726 133.664 139.902C136.778 136.078 138.988 131.596 140.129 126.793C141.27 121.99 141.311 116.989 140.25 112.167C139.19 107.346 137.054 102.827 134.004 98.952C130.954 95.0766 127.069 91.9446 122.641 89.7912C118.212 87.6377 113.354 86.5187 108.433 86.5181H108.413ZM108.413 141.006C104.116 141.006 99.9161 139.728 96.3437 137.333C92.7713 134.938 89.9869 131.534 88.3427 127.551C86.6985 123.569 86.2683 119.186 87.1065 114.958C87.9447 110.73 90.0137 106.846 93.0518 103.798C96.0899 100.75 99.9607 98.6739 104.175 97.8329C108.389 96.9919 112.756 97.4236 116.726 99.0733C120.695 100.723 124.088 103.517 126.475 107.101C128.862 110.685 130.136 114.899 130.136 119.21C130.15 122.077 129.597 124.919 128.51 127.57C127.424 130.222 125.824 132.631 123.805 134.66C121.785 136.688 119.385 138.295 116.743 139.388C114.101 140.48 111.27 141.038 108.413 141.027V141.006Z" fill="white"/>
</g>
<defs>
<clipPath id="clip0_7_108">
<rect width="128" height="152" fill="white" transform="translate(13)"/>
</clipPath>
</defs>
</svg>
